<svg width="270" height="42" viewBox="0 0 270 42" fill="none" xmlns="http://www.w3.org/2000/svg">
<path d="M262.647 41.9556H159.005C154.941 41.9556 151.652 38.6583 151.652 34.6032V7.6415C151.652 3.57809 154.941 0.289062 159.005 0.289062H262.647C266.71 0.289062 269.999 3.57809 269.999 7.6415V34.6032C269.999 38.6583 266.702 41.9556 262.647 41.9556Z" fill="black"/>
<path d="M191.804 12.2378L191.204 14.0697H190.43L192.411 8.24103H193.319L195.309 14.0697H194.51L193.885 12.2378H191.804ZM193.719 11.655L193.144 9.97297C193.011 9.58995 192.928 9.24855 192.844 8.90716H192.828C192.744 9.25688 192.645 9.6066 192.536 9.96464L191.97 11.655H193.719Z" fill="white"/>
<path d="M196.242 9.88971L197.066 12.2462C197.207 12.6209 197.316 12.9706 197.399 13.3203H197.424C197.516 12.9706 197.64 12.6292 197.782 12.2462L198.598 9.88971H199.389L197.749 14.078H197.024L195.434 9.88971H196.242Z" fill="white"/>
<path d="M202.395 14.0697L202.337 13.5451H202.312C202.079 13.8698 201.629 14.1696 201.029 14.1696C200.18 14.1696 199.747 13.5701 199.747 12.9705C199.747 11.963 200.646 11.4051 202.262 11.4135V11.3302C202.262 10.9805 202.17 10.3643 201.312 10.3643C200.921 10.3643 200.521 10.4892 200.222 10.6724L200.047 10.1728C200.388 9.94798 200.896 9.7981 201.421 9.7981C202.703 9.7981 203.011 10.6724 203.011 11.5051V13.0705C203.011 13.4368 203.028 13.7866 203.078 14.078H202.395V14.0697ZM202.278 11.938C201.446 11.9214 200.505 12.0713 200.505 12.879C200.505 13.3702 200.83 13.6034 201.221 13.6034C201.762 13.6034 202.112 13.2537 202.228 12.9039C202.253 12.829 202.27 12.7374 202.27 12.6625V11.938H202.278Z" fill="white"/>
<path d="M205.093 8.70732C205.101 8.96544 204.91 9.17361 204.61 9.17361C204.343 9.17361 204.152 8.96544 204.152 8.70732C204.152 8.44086 204.352 8.2327 204.627 8.2327C204.918 8.24102 205.093 8.44086 205.093 8.70732ZM204.244 14.0697V9.88137H205.01V14.0697H204.244Z" fill="white"/>
<path d="M206.267 7.93295H207.033V14.0697H206.267V7.93295Z" fill="white"/>
<path d="M210.63 14.0697L210.572 13.5451H210.547C210.314 13.8698 209.864 14.1696 209.264 14.1696C208.415 14.1696 207.982 13.5701 207.982 12.9705C207.982 11.963 208.881 11.4051 210.497 11.4135V11.3302C210.497 10.9805 210.405 10.3643 209.548 10.3643C209.156 10.3643 208.756 10.4892 208.457 10.6724L208.282 10.1728C208.623 9.94798 209.131 9.7981 209.656 9.7981C210.938 9.7981 211.246 10.6724 211.246 11.5051V13.0705C211.246 13.4368 211.263 13.7866 211.313 14.078H210.63V14.0697ZM210.522 11.938C209.689 11.9214 208.748 12.0713 208.748 12.879C208.748 13.3702 209.073 13.6034 209.464 13.6034C210.005 13.6034 210.355 13.2537 210.472 12.9039C210.497 12.829 210.513 12.7374 210.513 12.6625V11.938H210.522Z" fill="white"/>
<path d="M212.445 14.0697C212.462 13.7866 212.479 13.3619 212.479 12.9872V7.93295H213.236V10.5642H213.253C213.519 10.0979 214.002 9.79812 214.677 9.79812C215.718 9.79812 216.45 10.6641 216.442 11.9297C216.442 13.4285 215.501 14.1696 214.569 14.1696C213.969 14.1696 213.478 13.9365 213.17 13.3869H213.145L213.111 14.078H212.445V14.0697ZM213.236 12.396C213.236 12.4876 213.253 12.5876 213.27 12.6708C213.411 13.1954 213.861 13.5618 214.41 13.5618C215.201 13.5618 215.684 12.9123 215.684 11.9547C215.684 11.1137 215.251 10.3976 214.435 10.3976C213.919 10.3976 213.436 10.7557 213.278 11.3302C213.261 11.4135 213.236 11.5217 213.236 11.6383V12.396Z" fill="white"/>
<path d="M217.408 7.93295H218.174V14.0697H217.408V7.93295Z" fill="white"/>
<path d="M219.873 12.1212C219.889 13.1537 220.547 13.5784 221.305 13.5784C221.846 13.5784 222.179 13.4868 222.462 13.3619L222.595 13.9031C222.329 14.0197 221.871 14.1613 221.205 14.1613C219.914 14.1613 219.148 13.3119 219.148 12.0546C219.148 10.7973 219.889 9.7981 221.113 9.7981C222.479 9.7981 222.845 10.9971 222.845 11.7715C222.845 11.9297 222.829 12.0463 222.82 12.1296H219.873V12.1212ZM222.104 11.5717C222.112 11.0887 221.904 10.3393 221.047 10.3393C220.272 10.3393 219.939 11.0471 219.881 11.5717H222.104Z" fill="white"/>
<path d="M229.407 11.9464C229.407 13.4952 228.333 14.1696 227.325 14.1696C226.193 14.1696 225.318 13.337 225.318 12.0213C225.318 10.6225 226.234 9.79812 227.392 9.79812C228.591 9.7898 229.407 10.6641 229.407 11.9464ZM226.084 11.988C226.084 12.904 226.609 13.5951 227.358 13.5951C228.083 13.5951 228.632 12.9123 228.632 11.9714C228.632 11.2636 228.274 10.3643 227.375 10.3643C226.476 10.3643 226.084 11.197 226.084 11.988Z" fill="white"/>
<path d="M230.364 11.0221C230.364 10.5891 230.356 10.2394 230.331 9.88969H231.005L231.047 10.5808H231.064C231.272 10.1811 231.755 9.7981 232.446 9.7981C233.029 9.7981 233.928 10.1395 233.928 11.58V14.078H233.17V11.6633C233.17 10.9888 232.921 10.4309 232.204 10.4309C231.705 10.4309 231.313 10.789 231.18 11.2053C231.147 11.2969 231.13 11.4301 231.13 11.5633V14.078H230.364V11.0221Z" fill="white"/>
<path d="M237.925 8.69067V9.88971H239.016V10.4726H237.925V12.7291C237.925 13.2454 238.066 13.5451 238.491 13.5451C238.691 13.5451 238.841 13.5201 238.932 13.4952L238.966 14.0614C238.816 14.1197 238.583 14.1696 238.291 14.1696C237.933 14.1696 237.65 14.053 237.467 13.8532C237.25 13.6284 237.175 13.2537 237.175 12.7624V10.4809H236.526V9.89804H237.175V8.89884L237.925 8.69067Z" fill="white"/>
<path d="M239.865 7.93295H240.631V10.5475H240.648C240.772 10.331 240.964 10.1395 241.189 10.0063C241.414 9.87306 241.68 9.7898 241.963 9.7898C242.521 9.7898 243.429 10.1312 243.429 11.58V14.0697H242.663V11.6633C242.663 10.9888 242.413 10.4226 241.697 10.4226C241.205 10.4226 240.814 10.7723 240.673 11.1803C240.631 11.2803 240.623 11.3968 240.623 11.5467V14.0697H239.857V7.93295H239.865Z" fill="white"/>
<path d="M245.094 12.1212C245.111 13.1537 245.769 13.5784 246.526 13.5784C247.068 13.5784 247.401 13.4868 247.684 13.3619L247.817 13.9031C247.55 14.0197 247.093 14.1613 246.426 14.1613C245.136 14.1613 244.37 13.3119 244.37 12.0546C244.37 10.7973 245.111 9.7981 246.335 9.7981C247.7 9.7981 248.067 10.9971 248.067 11.7715C248.067 11.9297 248.05 12.0463 248.042 12.1296H245.094V12.1212ZM247.326 11.5717C247.334 11.0887 247.126 10.3393 246.268 10.3393C245.494 10.3393 245.161 11.0471 245.102 11.5717H247.326Z" fill="white"/>
<path d="M198.706 29.424C198.14 29.6239 197.032 29.9569 195.717 29.9569C194.243 29.9569 193.036 29.5822 192.078 28.6746C191.245 27.8669 190.721 26.568 190.721 25.0525C190.738 22.1549 192.728 20.0316 195.992 20.0316C197.116 20.0316 197.998 20.2814 198.415 20.4812L198.107 21.5054C197.59 21.2722 196.941 21.0807 195.958 21.0807C193.585 21.0807 192.045 22.5545 192.045 24.9942C192.045 27.4673 193.535 28.9244 195.8 28.9244C196.624 28.9244 197.182 28.8078 197.474 28.6663V25.7686H195.492V24.7611H198.698V29.424H198.706Z" fill="white"/>
<path d="M206.991 26.3099C206.991 28.8911 205.201 30.0152 203.511 30.0152C201.62 30.0152 200.163 28.6247 200.163 26.4181C200.163 24.0783 201.695 22.7127 203.627 22.7127C205.634 22.7127 206.991 24.1699 206.991 26.3099ZM201.446 26.3765C201.446 27.9086 202.328 29.0576 203.569 29.0576C204.785 29.0576 205.692 27.9169 205.692 26.3432C205.692 25.1608 205.101 23.662 203.602 23.662C202.103 23.662 201.446 25.0442 201.446 26.3765Z" fill="white"/>
<path d="M214.926 26.3099C214.926 28.8911 213.136 30.0152 211.446 30.0152C209.556 30.0152 208.099 28.6247 208.099 26.4181C208.099 24.0783 209.631 22.7127 211.563 22.7127C213.569 22.7127 214.926 24.1699 214.926 26.3099ZM209.381 26.3765C209.381 27.9086 210.264 29.0576 211.504 29.0576C212.72 29.0576 213.628 27.9169 213.628 26.3432C213.628 25.1608 213.036 23.662 211.538 23.662C210.039 23.662 209.381 25.0442 209.381 26.3765Z" fill="white"/>
<path d="M222.554 22.871C222.529 23.3789 222.495 23.9368 222.495 24.7944V28.8495C222.495 30.4565 222.179 31.4308 221.496 32.0386C220.822 32.6714 219.839 32.8796 218.957 32.8796C218.124 32.8796 217.2 32.6797 216.633 32.305L216.95 31.3392C217.416 31.6306 218.132 31.8887 218.998 31.8887C220.297 31.8887 221.246 31.2143 221.246 29.449V28.6663H221.221C220.83 29.3158 220.081 29.8404 218.998 29.8404C217.266 29.8404 216.026 28.3665 216.026 26.4348C216.026 24.07 217.574 22.7294 219.173 22.7294C220.389 22.7294 221.047 23.3622 221.355 23.9451H221.38L221.438 22.8876H222.554V22.871ZM221.238 25.6271C221.238 25.4106 221.221 25.2274 221.163 25.0525C220.93 24.3198 220.314 23.7119 219.39 23.7119C218.174 23.7119 217.308 24.7361 217.308 26.3515C217.308 27.7254 217.999 28.8661 219.373 28.8661C220.156 28.8661 220.863 28.3749 221.138 27.5672C221.213 27.3507 221.238 27.1009 221.238 26.8927V25.6271Z" fill="white"/>
<path d="M224.61 19.6069H225.884V29.857H224.61V19.6069Z" fill="white"/>
<path d="M228.724 26.593C228.749 28.3082 229.848 29.016 231.122 29.016C232.029 29.016 232.579 28.8578 233.054 28.6496L233.27 29.5572C232.82 29.7571 232.054 29.9902 230.947 29.9902C228.799 29.9902 227.508 28.5747 227.508 26.4681C227.508 24.3614 228.749 22.7044 230.789 22.7044C233.07 22.7044 233.678 24.7111 233.678 25.9934C233.678 26.2516 233.653 26.4597 233.636 26.5846H228.724V26.593ZM232.454 25.6853C232.471 24.8777 232.121 23.6203 230.697 23.6203C229.415 23.6203 228.849 24.8027 228.749 25.6853H232.454Z" fill="white"/>
<path d="M238.366 20.2397C238.974 20.1398 239.765 20.0482 240.781 20.0482C242.021 20.0482 242.929 20.3397 243.512 20.8559C244.045 21.3139 244.361 22.0216 244.361 22.8959C244.361 23.7786 244.103 24.4697 243.612 24.9776C242.946 25.6854 241.863 26.0434 240.639 26.0434C240.264 26.0434 239.915 26.0268 239.632 25.9601V29.857H238.374V20.2397H238.366ZM239.623 24.9276C239.898 25.0026 240.239 25.0276 240.664 25.0276C242.18 25.0276 243.104 24.2948 243.104 22.9459C243.104 21.6636 242.196 21.0391 240.806 21.0391C240.256 21.0391 239.84 21.0807 239.623 21.139V24.9276Z" fill="white"/>
<path d="M245.935 19.6069H247.209V29.857H245.935V19.6069Z" fill="white"/>
<path d="M253.221 29.857L253.121 28.9744H253.079C252.688 29.5239 251.938 30.0152 250.939 30.0152C249.524 30.0152 248.799 29.016 248.799 28.0085C248.799 26.3182 250.298 25.3939 253.004 25.4106V25.269C253.004 24.6945 252.846 23.6537 251.414 23.6537C250.764 23.6537 250.082 23.8535 249.599 24.1699L249.307 23.3372C249.882 22.9625 250.723 22.7211 251.605 22.7211C253.745 22.7211 254.262 24.1782 254.262 25.5771V28.1917C254.262 28.7995 254.287 29.3907 254.378 29.8653H253.221V29.857ZM253.029 26.2932C251.639 26.2682 250.073 26.5097 250.073 27.8669C250.073 28.6913 250.623 29.0826 251.272 29.0826C252.18 29.0826 252.763 28.4998 252.963 27.9086C253.004 27.7753 253.038 27.6338 253.038 27.5006V26.2932H253.029Z" fill="white"/>
<path d="M256.66 22.8709L258.192 27.001C258.35 27.4673 258.525 28.0085 258.641 28.4331H258.666C258.8 28.0168 258.941 27.4839 259.116 26.976L260.498 22.8793H261.839L259.932 27.8586C259.024 30.2567 258.4 31.4807 257.534 32.2301C256.918 32.7797 256.293 32.9961 255.977 33.0544L255.66 31.9886C255.977 31.8887 256.393 31.6805 256.776 31.3641C257.126 31.0893 257.559 30.5981 257.842 29.9486C257.9 29.8154 257.942 29.7154 257.942 29.6405C257.942 29.5656 257.917 29.4656 257.859 29.3074L255.277 22.8709H256.66Z" fill="white"/>
<path d="M183.335 20.1565L178.481 17.3504L174.484 21.2139L178.131 24.7444L183.327 21.7468C183.61 21.5803 183.785 21.2889 183.785 20.9558C183.793 20.6144 183.618 20.323 183.335 20.1565Z" fill="#FFCE00"/>
<path d="M177.656 16.8758L172.311 13.7949L160.603 7.79138L173.826 20.5811L177.656 16.8758Z" fill="#00F076"/>
<path d="M160.795 34.445L172.327 28.0918L177.307 25.2191L173.826 21.8551L160.795 34.445Z" fill="#F83547"/>
<path d="M159.821 8.30762L159.804 34.1286L173.168 21.2139L159.821 8.30762Z" fill="#00CCFF"/>
<path d="M110.994 41.9556H7.35243C3.28903 41.9556 0 38.6666 0 34.6032V7.64149C0 3.57808 3.28903 0.289062 7.35243 0.289062H110.994C115.058 0.289062 118.347 3.57808 118.347 7.64149V34.6032C118.347 38.6666 115.049 41.9556 110.994 41.9556Z" fill="black"/>
<path d="M11.3076 17.1589C8.77631 21.5553 10.3834 28.2333 13.1894 32.2801C14.5883 34.3034 16.0038 36.1186 17.944 36.1186C17.9773 36.1186 18.0189 36.1186 18.0522 36.1186C18.9598 36.0853 19.6259 35.8022 20.2588 35.5275C20.9749 35.2194 21.7159 34.9113 22.8733 34.9113C23.9808 34.9113 24.6802 35.2194 25.363 35.5108C26.0375 35.8022 26.7286 36.102 27.7444 36.0853C29.9343 36.0437 31.2749 34.0869 32.4573 32.355C33.6896 30.5481 34.3141 28.7995 34.5223 28.1251L34.5306 28.1001C34.5723 27.9835 34.514 27.8503 34.3974 27.8003L34.3808 27.792C33.9977 27.6338 30.6171 26.135 30.5838 22.0549C30.5505 18.7409 33.1151 16.984 33.6314 16.6676L33.6563 16.6509C33.7146 16.6176 33.7479 16.5593 33.7646 16.4927C33.7812 16.4261 33.7646 16.3595 33.723 16.3012C31.9494 13.7116 29.2349 13.3203 28.1441 13.2703C27.9859 13.2537 27.8194 13.2453 27.6612 13.2453C26.3789 13.2453 25.1465 13.7283 24.164 14.1196C23.4812 14.3861 22.89 14.6192 22.4903 14.6192C22.0323 14.6192 21.4411 14.3861 20.7584 14.1113C19.8424 13.7449 18.8016 13.3369 17.7025 13.3369C17.6775 13.3369 17.6525 13.3369 17.6275 13.3369C15.0629 13.3702 12.6482 14.8357 11.3076 17.1589Z" fill="white"/>
<path d="M28.1608 6.13437C26.612 6.20098 24.7552 7.15022 23.6394 8.4575C22.6985 9.54829 21.7742 11.3718 22.0157 13.212C22.0324 13.3286 22.124 13.4119 22.2405 13.4285C22.3488 13.4368 22.4487 13.4368 22.5569 13.4368C24.0724 13.4368 25.7044 12.5958 26.8202 11.2469C27.9942 9.82307 28.5854 7.99121 28.4106 6.35086C28.4022 6.22596 28.2857 6.12604 28.1608 6.13437Z" fill="white"/>
<path d="M42.5823 10.0062C43.0736 9.93131 43.6481 9.87302 44.2893 9.87302C45.4467 9.87302 46.2627 10.1395 46.8123 10.6474C47.3618 11.1553 47.6866 11.8714 47.6866 12.8789C47.6866 13.8948 47.3702 14.7275 46.7956 15.2937C46.2128 15.8765 45.2552 16.1846 44.0478 16.1846C43.4733 16.1846 42.9987 16.1596 42.5907 16.1097V10.0062H42.5823ZM43.3817 15.5102C43.5815 15.5435 43.8813 15.5518 44.1977 15.5518C45.913 15.5518 46.8456 14.5942 46.8456 12.9122C46.8539 11.4468 46.0212 10.5142 44.3226 10.5142C43.9063 10.5142 43.5982 10.5475 43.3817 10.5974V15.5102Z" fill="white"/>
<path d="M52.7658 13.8781C52.7658 15.5268 51.6167 16.2512 50.5426 16.2512C49.3352 16.2512 48.4026 15.3686 48.4026 13.9531C48.4026 12.4543 49.3852 11.58 50.6175 11.58C51.8915 11.58 52.7658 12.5042 52.7658 13.8781ZM49.2187 13.9198C49.2187 14.9023 49.7765 15.6351 50.5759 15.6351C51.3503 15.6351 51.9331 14.9106 51.9331 13.9031C51.9331 13.1454 51.5584 12.1878 50.5926 12.1878C49.635 12.1878 49.2187 13.0705 49.2187 13.9198Z" fill="white"/>
<path d="M54.0314 11.6799L54.6226 13.9448C54.7559 14.4444 54.8724 14.9023 54.9557 15.3603H54.9807C55.0806 14.9106 55.2305 14.4277 55.3804 13.9531L56.1048 11.6799H56.7876L57.4787 13.9114C57.6452 14.4443 57.7784 14.919 57.8784 15.3686H57.9033C57.9783 14.919 58.0949 14.4443 58.2447 13.9198L58.8776 11.6799H59.6769L58.2364 16.143H57.4953L56.8126 14.0114C56.6543 13.5118 56.5294 13.0705 56.4129 12.5459H56.3962C56.288 13.0788 56.1464 13.5451 55.9882 14.0197L55.2721 16.143H54.531L53.1821 11.6799H54.0314Z" fill="white"/>
<path d="M60.4846 12.8873C60.4846 12.4293 60.4763 12.0463 60.4513 11.6799H61.1674L61.2173 12.4126H61.234C61.4505 11.988 61.9667 11.5717 62.7078 11.5717C63.324 11.5717 64.2816 11.9464 64.2816 13.4701V16.1347H63.4655V13.5617C63.4655 12.8456 63.1991 12.2461 62.433 12.2461C61.9001 12.2461 61.4838 12.6208 61.3422 13.0788C61.3089 13.1787 61.284 13.3203 61.284 13.4535V16.1347H60.468V12.8873H60.4846Z" fill="white"/>
<path d="M65.5972 9.5899H66.4132V16.143H65.5972V9.5899Z" fill="white"/>
<path d="M71.8089 13.8781C71.8089 15.5268 70.6598 16.2512 69.5857 16.2512C68.3783 16.2512 67.4457 15.3686 67.4457 13.9531C67.4457 12.4543 68.4283 11.58 69.6606 11.58C70.9429 11.58 71.8089 12.5042 71.8089 13.8781ZM68.2701 13.9198C68.2701 14.9023 68.828 15.6351 69.6273 15.6351C70.4017 15.6351 70.9846 14.9106 70.9846 13.9031C70.9846 13.1454 70.6099 12.1878 69.644 12.1878C68.6864 12.1878 68.2701 13.0705 68.2701 13.9198Z" fill="white"/>
<path d="M75.2978 16.143L75.2312 15.5768H75.2062C74.9564 15.9265 74.4818 16.2429 73.8406 16.2429C72.933 16.2429 72.475 15.6101 72.475 14.9606C72.475 13.8781 73.4326 13.2869 75.1562 13.3036V13.212C75.1562 12.8456 75.0563 12.1795 74.1404 12.1795C73.724 12.1795 73.291 12.3044 72.9746 12.5126L72.7914 11.9797C73.1578 11.7382 73.6907 11.58 74.2569 11.58C75.6225 11.58 75.9556 12.5126 75.9556 13.4035V15.0772C75.9556 15.4602 75.9722 15.8432 76.0305 16.143H75.2978ZM75.1812 13.8615C74.2902 13.8448 73.291 14.003 73.291 14.869C73.291 15.3936 73.6408 15.6434 74.0571 15.6434C74.64 15.6434 75.0063 15.2687 75.1312 14.894C75.1562 14.8107 75.1812 14.7191 75.1812 14.6359V13.8615Z" fill="white"/>
<path d="M81.118 9.5899V14.9856C81.118 15.3853 81.1263 15.8349 81.1513 16.143H80.4269L80.3936 15.3686H80.3769C80.1271 15.8682 79.5859 16.2429 78.8532 16.2429C77.7707 16.2429 76.938 15.327 76.938 13.978C76.9297 12.4959 77.854 11.58 78.9448 11.58C79.6275 11.58 80.0855 11.9047 80.2937 12.2628H80.3103V9.59823H81.118V9.5899ZM80.3103 13.4951C80.3103 13.3952 80.302 13.2536 80.277 13.1537C80.1605 12.6375 79.7191 12.2128 79.103 12.2128C78.262 12.2128 77.7624 12.9455 77.7624 13.9364C77.7624 14.844 78.2037 15.5851 79.078 15.5851C79.6192 15.5851 80.1188 15.227 80.2687 14.6192C80.2937 14.511 80.302 14.3944 80.302 14.2695V13.4951H80.3103Z" fill="white"/>
<path d="M88.4455 13.8781C88.4455 15.5268 87.2964 16.2512 86.2223 16.2512C85.0149 16.2512 84.0823 15.3686 84.0823 13.9531C84.0823 12.4543 85.0649 11.58 86.2972 11.58C87.5795 11.58 88.4455 12.5042 88.4455 13.8781ZM84.9067 13.9198C84.9067 14.9023 85.4646 15.6351 86.2639 15.6351C87.0383 15.6351 87.6212 14.9106 87.6212 13.9031C87.6212 13.1454 87.2465 12.1878 86.2806 12.1878C85.323 12.1878 84.9067 13.0705 84.9067 13.9198Z" fill="white"/>
<path d="M89.4614 12.8873C89.4614 12.4293 89.4531 12.0463 89.4281 11.6799H90.1442L90.1942 12.4126H90.2108C90.4273 11.988 90.9436 11.5717 91.6846 11.5717C92.3008 11.5717 93.2584 11.9464 93.2584 13.4701V16.1347H92.4423V13.5617C92.4423 12.8456 92.1759 12.2461 91.4098 12.2461C90.8769 12.2461 90.4606 12.6208 90.3191 13.0788C90.2857 13.1787 90.2608 13.3203 90.2608 13.4535V16.1347H89.4448V12.8873H89.4614Z" fill="white"/>
<path d="M97.505 10.3976V11.6799H98.6707V12.2961H97.505V14.7025C97.505 15.2603 97.6632 15.5684 98.1128 15.5684C98.321 15.5684 98.4792 15.5435 98.5791 15.5101L98.6124 16.118C98.4542 16.1846 98.2044 16.2262 97.8964 16.2262C97.5217 16.2262 97.2136 16.1097 97.0221 15.8848C96.7889 15.6434 96.7056 15.252 96.7056 14.7191V12.2794H96.0145V11.6632H96.7056V10.6057L97.505 10.3976Z" fill="white"/>
<path d="M99.57 9.5899H100.386V12.371H100.403C100.536 12.1379 100.736 11.938 100.986 11.7965C101.227 11.6549 101.51 11.5633 101.818 11.5633C102.418 11.5633 103.375 11.938 103.375 13.4701V16.1263H102.559V13.5617C102.559 12.8456 102.293 12.2378 101.527 12.2378C101.002 12.2378 100.586 12.6042 100.436 13.0455C100.386 13.1537 100.378 13.2786 100.378 13.4368V16.1263H99.5616V9.5899H99.57Z" fill="white"/>
<path d="M105.132 14.0613C105.149 15.1604 105.848 15.6101 106.664 15.6101C107.247 15.6101 107.597 15.5102 107.897 15.3769L108.038 15.9598C107.755 16.093 107.264 16.2346 106.556 16.2346C105.182 16.2346 104.358 15.327 104.358 13.9864C104.358 12.6375 105.149 11.58 106.448 11.58C107.905 11.58 108.296 12.8623 108.296 13.6866C108.296 13.8532 108.28 13.9781 108.271 14.0613H105.132ZM107.514 13.4785C107.522 12.9622 107.305 12.1628 106.389 12.1628C105.565 12.1628 105.207 12.9206 105.149 13.4785H107.514Z" fill="white"/>
<path d="M44.8888 28.0251L43.7647 31.439H42.3159L46.0046 20.5894H47.6949L51.3919 31.439H49.8931L48.7357 28.0251H44.8888ZM48.4443 26.926L47.3868 23.8035C47.1453 23.0957 46.9871 22.4546 46.8206 21.8218H46.7873C46.6291 22.4629 46.4459 23.129 46.2377 23.7869L45.1802 26.926H48.4443Z" fill="white"/>
<path d="M52.8907 26.1932C52.8907 25.194 52.8574 24.3864 52.8241 23.6453H54.0981L54.1647 24.9859H54.198C54.7809 24.0366 55.6968 23.4704 56.9624 23.4704C58.8443 23.4704 60.2598 25.0608 60.2598 27.4339C60.2598 30.2317 58.5528 31.6139 56.721 31.6139C55.6885 31.6139 54.7892 31.1643 54.3229 30.3899H54.2896V34.6198H52.8907V26.1932ZM54.2896 28.2666C54.2896 28.4747 54.3229 28.6663 54.3562 28.8411C54.6143 29.8237 55.4636 30.4981 56.4795 30.4981C57.9783 30.4981 58.8443 29.2741 58.8443 27.4922C58.8443 25.9268 58.0199 24.5945 56.5211 24.5945C55.5552 24.5945 54.656 25.2856 54.3812 26.3431C54.3312 26.518 54.2813 26.7262 54.2813 26.926V28.2666H54.2896Z" fill="white"/>
<path d="M62.05 26.1932C62.05 25.194 62.0167 24.3864 61.9834 23.6453H63.2574L63.324 24.9859H63.3573C63.9402 24.0366 64.8561 23.4704 66.1217 23.4704C68.0036 23.4704 69.4191 25.0608 69.4191 27.4339C69.4191 30.2317 67.7121 31.6139 65.8803 31.6139C64.8478 31.6139 63.9485 31.1643 63.4822 30.3899H63.4489V34.6198H62.05V26.1932ZM63.4489 28.2666C63.4489 28.4747 63.4822 28.6663 63.5155 28.8411C63.7736 29.8237 64.6229 30.4981 65.6388 30.4981C67.1376 30.4981 68.0036 29.2741 68.0036 27.4922C68.0036 25.9268 67.1792 24.5945 65.6804 24.5945C64.7145 24.5945 63.8153 25.2856 63.5405 26.3431C63.4905 26.518 63.4406 26.7262 63.4406 26.926V28.2666H63.4489Z" fill="white"/>
<path d="M74.4817 29.7321C75.1062 30.1151 76.0221 30.4398 76.988 30.4398C78.4202 30.4398 79.2529 29.6821 79.2529 28.5913C79.2529 27.5755 78.67 27.0009 77.2129 26.4347C75.4476 25.8102 74.3485 24.886 74.3485 23.3622C74.3485 21.6719 75.7474 20.4146 77.854 20.4146C78.9698 20.4146 79.7691 20.6727 80.2521 20.9475L79.869 22.0882C79.511 21.8967 78.7949 21.572 77.8124 21.572C76.3302 21.572 75.7723 22.4546 75.7723 23.1956C75.7723 24.2115 76.4301 24.7111 77.9289 25.2856C79.7608 25.9934 80.6934 26.876 80.6934 28.4747C80.6934 30.1484 79.4527 31.5972 76.8964 31.5972C75.8473 31.5972 74.7065 31.2892 74.1237 30.9061L74.4817 29.7321Z" fill="white"/>
<path d="M84.2239 21.4054V23.6453H86.2556V24.7194H84.2239V28.9244C84.2239 29.8903 84.4986 30.4398 85.2813 30.4398C85.656 30.4398 85.9225 30.3899 86.1057 30.3482L86.1723 31.4057C85.8975 31.514 85.4645 31.5972 84.915 31.5972C84.2572 31.5972 83.7243 31.3891 83.3912 30.9977C82.9915 30.5814 82.8416 29.882 82.8416 28.966V24.7194H81.6343V23.6453H82.8416V21.7801L84.2239 21.4054Z" fill="white"/>
<path d="M94.7988 27.4756C94.7988 30.3566 92.8004 31.6139 90.9186 31.6139C88.8119 31.6139 87.1882 30.0651 87.1882 27.6088C87.1882 25.0025 88.8952 23.4704 91.0518 23.4704C93.2917 23.4704 94.7988 25.0941 94.7988 27.4756ZM88.6204 27.5588C88.6204 29.2658 89.603 30.5564 90.9852 30.5564C92.3341 30.5564 93.35 29.2824 93.35 27.5338C93.35 26.2182 92.6921 24.5362 91.0185 24.5362C89.3448 24.5279 88.6204 26.0767 88.6204 27.5588Z" fill="white"/>
<path d="M96.589 26.0767C96.589 25.1607 96.5723 24.3697 96.5223 23.6453H97.763L97.813 25.1774H97.8796C98.2376 24.1282 99.0869 23.4704 100.036 23.4704C100.194 23.4704 100.311 23.4871 100.436 23.5204V24.8527C100.294 24.8193 100.144 24.8027 99.9529 24.8027C98.9537 24.8027 98.246 25.5604 98.0544 26.6179C98.0211 26.8094 97.9878 27.0342 97.9878 27.2757V31.4307H96.589V26.0767Z" fill="white"/>
<path d="M102.484 27.8003C102.518 29.7154 103.742 30.5065 105.149 30.5065C106.165 30.5065 106.772 30.3316 107.305 30.1068L107.547 31.1143C107.047 31.3391 106.198 31.5973 104.957 31.5973C102.559 31.5973 101.127 30.0235 101.127 27.6671C101.127 25.319 102.509 23.4621 104.782 23.4621C107.322 23.4621 107.997 25.702 107.997 27.1342C107.997 27.4256 107.963 27.6504 107.947 27.792H102.484V27.8003ZM106.639 26.7845C106.656 25.8852 106.265 24.4863 104.674 24.4863C103.242 24.4863 102.617 25.8102 102.501 26.7845H106.639Z" fill="white"/>
</svg>
