<svg width="43" height="43" viewBox="0 0 43 43" fill="none" xmlns="http://www.w3.org/2000/svg">
<circle cx="21.7227" cy="21.0493" r="21.0493" fill="#B1B1B1"/>
<path d="M12.3577 16.3389H16.8265V30.7129H12.3577V16.3389ZM14.5922 9.19385C16.0205 9.19385 17.1813 10.3546 17.1813 11.7853C17.1813 13.2145 16.0205 14.3753 14.5922 14.3753C13.1606 14.3753 12.0032 13.2145 12.0032 11.7853C12.0032 10.3546 13.1606 9.19385 14.5922 9.19385Z" fill="white"/>
<path d="M19.6289 16.3403H23.914V18.3059H23.9751C24.5715 17.1753 26.0293 15.9844 28.202 15.9844C32.726 15.9844 33.561 18.9605 33.561 22.8308V30.7143H29.0955V23.7242C29.0955 22.0569 29.0665 19.9128 26.774 19.9128C24.4491 19.9128 24.0944 21.7301 24.0944 23.6044V30.7143H19.6289V16.3403Z" fill="white"/>
</svg>
